<svg viewBox="0 0 24 24" fill="none" xmlns="http://www.w3.org/2000/svg">
  <path d="M21.44 11.05L12.25 20.24C11.12 21.37 9.61 22 8 22C6.39 22 4.88 21.37 3.75 20.24C2.62 19.11 2 17.6 2 16C2 14.4 2.63 12.89 3.76 11.76L13 2.55C13.74 1.79 14.74 1.36 15.79 1.36C16.83 1.36 17.83 1.79 18.58 2.55C19.33 3.3 19.76 4.3 19.76 5.35C19.76 6.4 19.33 7.4 18.58 8.14L9.31 17.38C8.93 17.76 8.42 17.97 7.88 17.97C7.34 17.97 6.82 17.76 6.44 17.38C6.06 17 5.85 16.48 5.85 15.94C5.85 15.4 6.06 14.89 6.44 14.51L14.69 6.29" stroke="#555555" stroke-width="2" stroke-linecap="round" stroke-linejoin="round"/>
</svg>