<svg xmlns="http://www.w3.org/2000/svg" viewBox="0 0 40 36" fill="none">
	<path d="M20 29C22.5 29 24.6253 28.1253 26.376 26.376C28.1267 24.6267 29.0013 22.5013 29 20C28.9987 17.4987 28.124 15.374 26.376 13.626C24.628 11.878 22.5027 11.0027 20 11C17.4973 10.9973 15.3727 11.8727 13.626 13.626C11.8793 15.3793 11.004 17.504 11 20C10.996 22.496 11.8713 24.6213 13.626 26.376C15.3807 28.1307 17.5053 29.0053 20 29ZM20 25C18.6 25 17.4167 24.5167 16.45 23.55C15.4833 22.5833 15 21.4 15 20C15 18.6 15.4833 17.4167 16.45 16.45C17.4167 15.4833 18.6 15 20 15C21.4 15 22.5833 15.4833 23.55 16.45C24.5167 17.4167 25 18.6 25 20C25 21.4 24.5167 22.5833 23.55 23.55C22.5833 24.5167 21.4 25 20 25ZM4 36C2.9 36 1.95867 35.6087 1.176 34.826C0.393333 34.0433 0.00133333 33.1013 0 32V8C0 6.9 0.392 5.95867 1.176 5.176C1.96 4.39333 2.90133 4.00133 4 4H10.3L12.8 1.3C13.1667 0.9 13.6087 0.583333 14.126 0.35C14.6433 0.116667 15.1847 0 15.75 0H24.25C24.8167 0 25.3587 0.116667 25.876 0.35C26.3933 0.583333 26.8347 0.9 27.2 1.3L29.7 4H36C37.1 4 38.042 4.392 38.826 5.176C39.61 5.96 40.0013 6.90133 40 8V32C40 33.1 39.6087 34.042 38.826 34.826C38.0433 35.61 37.1013 36.0013 36 36H4ZM4 32H36V8H27.9L24.25 4H15.75L12.1 8H4V32Z" fill="url(#paint0_linear_688_9)"/>
	<defs>
		<linearGradient id="paint0_linear_688_9" x1="46.8499" y1="-10.8161" x2="4.84485" y2="7.41579" gradientUnits="userSpaceOnUse">
			<stop stop-color="#013B6C"/>
			<stop offset="1" stop-color="#2B7DB4"/>
		</linearGradient>
	</defs>
</svg>