<svg class="space-copy" xmlns="http://www.w3.org/2000/svg" viewBox="0 0 34 34" fill="none">
	<path d="M12 12V7.33333C12 5.46667 12 4.53333 12.3633 3.82C12.6833 3.19167 13.1917 2.68333 13.82 2.36333C14.5333 2 15.4667 2 17.3333 2H26.6667C28.5333 2 29.4667 2 30.18 2.36333C30.8072 2.68291 31.3171 3.19282 31.6367 3.82C32 4.53333 32 5.46667 32 7.33333V16.6667C32 18.5333 32 19.4667 31.6367 20.18C31.3171 20.8072 30.8072 21.3171 30.18 21.6367C29.4667 22 28.5333 22 26.6717 22H22M12 12H7.33333C5.46667 12 4.53333 12 3.82 12.3633C3.19282 12.6829 2.68291 13.1928 2.36333 13.82C2 14.5333 2 15.4667 2 17.3333V26.6667C2 28.5333 2 29.4667 2.36333 30.18C2.68291 30.8072 3.19282 31.3171 3.82 31.6367C4.53167 32 5.465 32 7.32833 32H16.6733C18.535 32 19.4667 32 20.18 31.6367C20.8072 31.3171 21.3171 30.8072 21.6367 30.18C22 29.4667 22 28.535 22 26.6717V22M12 12H16.6667C18.5333 12 19.4667 12 20.18 12.3633C20.8072 12.6829 21.3171 13.1928 21.6367 13.82C22 14.5317 22 15.465 22 17.3283V22" stroke="#2B7DB4" stroke-width="3.33333" stroke-linecap="round" stroke-linejoin="round"/>
</svg>