<svg xmlns="http://www.w3.org/2000/svg" viewBox="0 0 40 30" fill="none">
	<path d="M38.7359 1.02394C39.4585 1.70707 39.8803 2.6492 39.9084 3.64319C39.9365 4.63718 39.5688 5.60165 38.8859 6.32455L17.6335 28.8272C17.2891 29.1912 16.8751 29.4825 16.4162 29.6839C15.9573 29.8853 15.4626 29.9926 14.9615 29.9996C14.4604 30.0066 13.963 29.9131 13.4986 29.7246C13.0342 29.5361 12.6123 29.2565 12.2579 28.9022L1.00658 17.6509C0.344099 16.9399 -0.0165588 15.9996 0.000584302 15.0279C0.0177274 14.0563 0.411333 13.1293 1.09848 12.4422C1.78562 11.755 2.71265 11.3614 3.68427 11.3443C4.65589 11.3271 5.59623 11.6878 6.30719 12.3502L14.8332 20.8712L33.4353 1.17396C34.1184 0.451362 35.0606 0.0296347 36.0546 0.00150289C37.0486 -0.0266289 38.013 0.341138 38.7359 1.02394Z" fill="url(#paint0_linear_538_471)"/>
	<defs>
		<linearGradient id="paint0_linear_538_471" x1="46.7443" y1="-9.01345" x2="7.52899" y2="11.3658" gradientUnits="userSpaceOnUse">
			<stop stop-color="#013B6C"/>
			<stop offset="1" stop-color="#2B7DB4"/>
		</linearGradient>
	</defs>
</svg>