<svg xmlns="http://www.w3.org/2000/svg" viewBox="0 0 24 21" fill="black">
	<path d="M13.3946 3.77853C12.9367 3.72756 12.4716 3.69834 12 3.69107C9.93951 3.70048 7.80355 4.2164 5.78174 5.20499C4.28058 5.96924 2.81828 7.04816 1.54834 8.37903C0.924641 9.05842 0.12862 10.0421 0 11.0917C0.0152 12.0009 0.963061 13.123 1.54834 13.8044C2.7392 15.083 4.16342 16.131 5.78174 16.9784C5.83676 17.0059 5.89193 17.033 5.94726 17.0598L4.44582 19.7589L6.48593 21L17.5143 1.23541L15.5505 0L13.3946 3.77853ZM18.0513 5.12657L16.5527 7.79999C17.2421 8.72194 17.6514 9.85886 17.6514 11.0917C17.6514 14.1645 15.1209 16.6557 11.9985 16.6557C11.8636 16.6557 11.7327 16.6407 11.6001 16.6316L10.6084 18.3988C11.0657 18.4492 11.5282 18.4859 12 18.4923C14.0625 18.4828 16.1972 17.9609 18.2168 16.9784C19.718 16.2141 21.1817 15.1352 22.4517 13.8044C23.0754 13.125 23.8714 12.1413 24 11.0917C23.9848 10.1825 23.0369 9.06033 22.4517 8.37901C21.2608 7.10041 19.8351 6.05237 18.2168 5.20495C18.1622 5.17769 18.1063 5.15317 18.0513 5.12657ZM11.9985 5.52768C12.1355 5.52768 12.2713 5.53332 12.4058 5.54275L11.2441 7.61304C9.61387 7.95327 8.39063 9.38109 8.39063 11.0902C8.39063 11.5195 8.46745 11.9305 8.60889 12.3115C8.60905 12.312 8.60873 12.3126 8.60889 12.3131L7.44433 14.3894C6.75331 13.4666 6.34569 12.3259 6.34569 11.0917C6.34571 8.01888 8.87617 5.52766 11.9985 5.52768ZM15.3779 9.89293L12.7603 14.5613C14.3818 14.2147 15.5962 12.7933 15.5962 11.0902C15.5962 10.6687 15.5145 10.2679 15.3779 9.89293Z" fill="black"/>
</svg>