<svg xmlns="http://www.w3.org/2000/svg" viewBox="0 0 32 40" fill="none">
	<path d="M19.172 0C20.1111 0.000229462 21.0202 0.330868 21.74 0.934L22 1.172L30.828 10C31.492 10.664 31.9013 11.5406 31.984 12.476L32 12.828V36C32.0003 37.0092 31.6192 37.9811 30.933 38.7211C30.2468 39.4611 29.3063 39.9143 28.3 39.99L28 40H4C2.99085 40.0003 2.01887 39.6192 1.2789 38.933C0.538941 38.2468 0.0856868 37.3063 0.0100004 36.3L2.00536e-07 36V4C-0.000319158 2.99085 0.380813 2.01887 1.06699 1.2789C1.75317 0.538941 2.69369 0.0856866 3.7 0.0100002L4 0H19.172ZM16 4H4V36H28V16H19C18.2044 16 17.4413 15.6839 16.8787 15.1213C16.3161 14.5587 16 13.7956 16 13V4ZM20 4.828V12H27.172L20 4.828Z" fill="url(#paint0_linear_688_15)"/>
	<defs>
		<linearGradient id="paint0_linear_688_15" x1="37.4799" y1="-12.0179" x2="1.09827" y2="-0.648314" gradientUnits="userSpaceOnUse">
			<stop stop-color="#013B6C"/>
			<stop offset="1" stop-color="#2B7DB4"/>
		</linearGradient>
	</defs>
</svg>