<svg xmlns="http://www.w3.org/2000/svg" viewBox="0 0 34 30" fill="none">
	<path fill-rule="evenodd" clip-rule="evenodd" d="M10.7288 3.57282C9.78851 3.57076 8.85701 3.75453 7.98782 4.11362C7.11862 4.47271 6.32882 5.00005 5.66378 5.6654C4.99874 6.33075 4.47156 7.12102 4.11255 7.99085C3.75354 8.86068 3.56978 9.79293 3.57184 10.734C3.5739 11.6752 3.76174 12.6066 4.12456 13.4748C4.48737 14.3431 5.018 15.131 5.68595 15.7935L15.7924 25.9047C16.1271 26.2393 16.5808 26.4272 17.0537 26.4272C17.5267 26.4272 17.9804 26.2393 18.3152 25.9045L28.4073 15.8058C29.7139 14.4608 30.4398 12.6555 30.4278 10.7794C30.4157 8.89974 29.664 7.10066 28.3356 5.77185C27.0073 4.44307 25.2093 3.69152 23.3313 3.67975C21.4532 3.66798 19.646 4.39692 18.3011 5.70894C17.5988 6.39412 16.4753 6.38458 15.7847 5.68757C15.1226 5.01931 14.3351 4.48852 13.4675 4.12563C12.5999 3.76273 11.6692 3.57488 10.7288 3.57282ZM6.62363 0.811518C7.92784 0.272716 9.3256 -0.00306571 10.7367 2.57492e-05C12.1477 0.00311708 13.5443 0.28502 14.8461 0.829531C15.6382 1.16085 16.3858 1.58541 17.0735 2.09292C18.8952 0.795774 21.09 0.0928304 23.3537 0.107021C26.1719 0.124688 28.8696 1.25251 30.8624 3.24592C32.8551 5.2393 33.9824 7.9377 34.0005 10.7565C34.0185 13.5754 32.9258 16.288 30.9588 18.3068L30.9429 18.3229L20.842 28.4303L20.8417 28.4306C19.8371 29.4354 18.4746 30 17.0537 30C15.6328 30 14.2702 29.4354 13.2656 28.4306L13.2654 28.4304L3.17009 18.3303C3.16914 18.3293 3.16819 18.3284 3.16725 18.3275C2.16657 17.3343 1.37164 16.1534 0.827997 14.8524C0.283838 13.5502 0.00213826 12.1533 -0.000950933 10.7419C-0.00404 9.33048 0.271542 7.93236 0.809996 6.62776C1.34845 5.32317 2.13918 4.13777 3.13684 3.13964C4.13449 2.14152 5.31943 1.35032 6.62363 0.811518Z" fill="url(#paint0_linear_372_70)"/>
	<defs>
		<linearGradient id="paint0_linear_372_70" x1="39.8234" y1="-9.01345" x2="4.34515" y2="6.69434" gradientUnits="userSpaceOnUse">
			<stop stop-color="#013B6C"/>
			<stop offset="1" stop-color="#2B7DB4"/>
		</linearGradient>
	</defs>
</svg>