<svg xmlns="http://www.w3.org/2000/svg" viewBox="0 0 250 206" fill="none">
	<path d="M33.2518 150.829L31.605 148.025L28.3799 148.441C24.708 148.915 19.0736 148.429 14.3771 145.603C9.98219 142.959 5.8708 137.962 5.26891 128.131C4.40387 114.002 5.22354 106.66 6.94784 102.378C8.44703 98.6547 10.7552 96.8989 15.2924 94.6303L17.3798 93.5866L17.8921 91.3098C18.617 88.0879 21.7645 79.8931 27.8997 74.5495L29.8506 72.8504L29.5565 70.2801C28.4709 60.7929 27.626 46.0197 28.5987 32.6398C29.0858 25.939 30.0155 19.7888 31.5049 14.8963C32.8808 10.3768 34.5358 7.59641 36.1489 6.17258C36.9314 6.1 39.0672 6.09071 42.8388 7.42384C47.5135 9.07623 54.1542 12.6183 62.6245 19.6397L65.4164 21.954L68.4533 19.9721C85.7038 8.71381 133.033 -7.42714 181.708 20.1332L184.517 21.7234L187.094 19.7806C190.053 17.5495 195.097 14.1541 200.439 11.3424C205.577 8.63753 210.249 6.87738 213.46 6.62283C213.79 6.8331 214.419 7.33541 215.234 8.47879C216.516 10.278 218.002 13.3373 219.228 18.1922C221.681 27.9097 222.909 44.0931 220.049 69.7149L219.734 72.5369L222.02 74.2214C223.457 75.2804 225.861 77.4886 227.921 80.3794C229.994 83.29 231.437 86.4943 231.602 89.6201L231.771 92.8285L234.776 93.964C238.052 95.2015 244.618 99.9424 244.618 108.462C244.618 110.571 244.732 113.088 244.845 115.604C244.922 117.314 244.999 119.023 245.041 120.601C245.151 124.813 245.059 128.918 244.373 132.687C243.69 136.434 242.455 139.638 240.428 142.203C238.443 144.715 235.466 146.913 230.766 148.317L227.46 149.304L227.262 152.749C226.935 158.43 224.274 167.371 217.242 174.865C210.345 182.213 198.919 188.52 180.341 188.629L177.37 188.646L176.002 191.284C175.77 191.731 172.588 195.833 163.441 194.47L162.211 194.287L161.042 194.71C147.092 199.758 123.728 203.682 99.5495 198.839C75.5509 194.032 50.7423 180.607 33.2518 150.829Z" fill="#2B7DB4" stroke="#013B6C" stroke-width="9.83987"/>
	<path d="M67.7901 141.454C70.7999 143.538 69.0442 145.795 67.7901 146.664C66.6325 148.111 50.715 146.664 32.7717 148.689L33.9294 138.85C43.9622 138.85 64.7802 139.371 67.7901 141.454Z" fill="#013B6C"/>
	<path d="M182.321 141.454C179.311 143.538 181.067 145.795 182.321 146.664C183.479 148.111 199.396 146.664 217.34 148.689L216.182 138.85C206.149 138.85 185.331 139.371 182.321 141.454Z" fill="#013B6C"/>
	<path d="M86.0228 156.214C89.2062 174.446 115.928 169.43 125.382 163.449C128.662 165.571 137.248 169.758 145.351 169.526C155.481 169.237 164.742 162.291 164.742 156.214C164.742 151.302 161.848 151.294 160.401 151.294C158.954 151.294 156.233 151.12 155.77 156.214C155.307 161.307 148.631 162.388 145.351 162.291C137.016 163.68 131.46 157.082 129.723 153.609V149.847C138.521 146.837 141.107 140.489 141.3 137.692C141.493 134.412 138.579 127.794 125.382 127.562C112.185 127.331 109.272 134.219 109.465 137.692C109.928 143.48 116.989 148.207 120.462 149.847V153.609C117.452 161.481 109.175 162.677 105.413 162.291C99.6249 162.581 94.4156 160.844 94.4156 156.214C94.4156 152.509 92.1003 151.294 90.0745 151.294C86.891 151.294 85.7739 154.788 86.0228 156.214Z" fill="#013B6C"/>
	<path d="M225.228 147.821C225.691 168.196 206.127 180.042 196.287 183.418L218.861 147.821H225.228Z" fill="white"/>
	<path d="M71.5525 54.6324C59.2816 60.4205 50.6187 70.3569 47.821 74.6015C39.4861 49.3651 43.5764 36.3032 46.6634 32.9268C58.7028 35.7051 68.2725 48.5548 71.5525 54.6324Z" fill="#013B6C"/>
	<path d="M178.923 54.6324C191.194 60.4205 199.857 70.3569 202.654 74.6015C210.989 49.3651 206.899 36.3032 203.812 32.9268C191.773 35.7051 182.203 48.5548 178.923 54.6324Z" fill="#013B6C"/>
	<path d="M226.965 144.638V143.191L223.492 144.349L223.781 145.796L226.965 144.638Z" fill="#013B6C"/>
	<path d="M222.913 146.086C222.913 159.283 206.031 175.702 197.734 182.262L177.186 188.918L179.212 182.262C204.449 170.454 212.687 148.98 213.652 139.719C217.819 114.945 213.845 95.2464 211.336 88.4936C212.957 86.4098 214.134 78.3448 214.52 74.7754C217.993 75.933 221.948 80.39 223.492 82.4159C222.334 84.2681 222.334 87.4324 222.623 88.4936H226.964V143.192L222.913 146.086Z" fill="#013B6C"/>
	<path d="M221.177 88.7828H228.701L223.781 80.9688L221.177 88.7828Z" fill="white"/>
	<path d="M39.7176 88.2034C36.5341 91.3869 34.5083 126.019 34.2189 142.901L23.8002 144.638V97.4644C23.8233 96.3459 22.9556 96.3358 20.3273 97.4644L23.8002 88.2034H28.1413C28.1413 85.8881 27.3695 83.7658 26.9837 82.994C27.9098 79.9842 32.7718 76.3377 35.0871 74.8906C35.0871 78.3635 35.9553 84.4411 39.7176 88.2034Z" fill="#013B6C"/>
	<path d="M29.8776 89.3619H22.353L27.273 81.5479L29.8776 89.3619Z" fill="white"/>
	<path d="M158.664 42.4774C130.418 33.4479 101.554 38.4258 90.9428 42.1881L72.9995 22.2192C113.98 -1.39647 160.98 12.3791 176.318 22.219L158.664 42.4774Z" fill="white"/>
	<path d="M86.6015 52.0278C79.6557 42.3037 69.0518 31.7693 64.7107 27.7176L73.5782 21.3506L91.2321 41.3197C116.237 31.8272 146.413 37.3645 158.375 41.3197L176.318 21.9294L185.116 27.4282C178.402 33.2163 167.25 46.1432 162.716 52.0278C133.544 40.9146 99.8178 47.3973 86.6015 52.0278Z" fill="#013B6C"/>
	<path d="M155.77 179.657C148.13 181.509 149.114 190.269 150.561 194.417C166.768 203.447 176.993 197.6 180.08 193.548C181.045 191.716 182.164 186.776 178.923 181.683C175.681 176.589 162.137 178.21 155.77 179.657Z" fill="#013B6C"/>
	<circle cx="79.6559" cy="113.672" r="17.0751" fill="#013B6C"/>
	<circle cx="170.53" cy="113.672" r="17.0751" fill="#013B6C"/>
	<circle cx="174.871" cy="110.488" r="4.05171" fill="white"/>
	<circle cx="83.997" cy="110.488" r="4.05171" fill="white"/>
	<path d="M187.605 154.768C190.846 154.768 202.268 157.855 207.574 159.398C205.838 161.52 202.365 165.823 202.365 166.054C202.365 166.344 190.789 161.424 187.605 160.556C184.925 159.825 184.132 158.626 184.132 157.662C183.939 156.697 184.364 154.768 187.605 154.768Z" fill="#013B6C"/>
	<path d="M62.8703 154.479C59.6289 154.479 48.207 157.566 42.9012 159.109C44.6376 161.231 48.1105 165.534 48.1105 165.765C48.1105 166.055 59.6868 161.135 62.8703 160.267C65.5507 159.536 66.3432 158.337 66.3432 157.373C66.5361 156.408 66.1117 154.479 62.8703 154.479Z" fill="#013B6C"/>
</svg>