<svg xmlns="http://www.w3.org/2000/svg" viewBox="0 0 46 46" fill="none">
	<path d="M21.9511 5.09766H7.21144C6.09453 5.09766 5.02337 5.54135 4.23359 6.33112C3.44381 7.1209 3.00012 8.19207 3.00012 9.30898V38.7882C3.00012 39.9051 3.44381 40.9763 4.23359 41.7661C5.02337 42.5559 6.09453 42.9995 7.21144 42.9995H36.6907C37.8076 42.9995 38.8788 42.5559 39.6685 41.7661C40.4583 40.9763 40.902 39.9051 40.902 38.7882V24.0486" stroke="url(#paint0_linear_372_75)" stroke-width="4.21132" stroke-linecap="round" stroke-linejoin="round"/>
	<path d="M35.3749 4.30829C36.2126 3.47061 37.3487 3 38.5334 3C39.7181 3 40.8542 3.47061 41.6919 4.30829C42.5296 5.14597 43.0002 6.28212 43.0002 7.46678C43.0002 8.65144 42.5296 9.78759 41.6919 10.6253L22.7136 29.6057C22.2136 30.1053 21.5959 30.4709 20.9174 30.6691L14.8679 32.4378C14.6867 32.4907 14.4946 32.4938 14.3118 32.447C14.129 32.4001 13.9621 32.305 13.8286 32.1716C13.6952 32.0381 13.6 31.8712 13.5532 31.6884C13.5064 31.5056 13.5095 31.3135 13.5624 31.1323L15.3311 25.0827C15.5302 24.4048 15.8966 23.7879 16.3966 23.2887L35.3749 4.30829Z" stroke="url(#paint1_linear_372_75)" stroke-width="4.21132" stroke-linecap="round" stroke-linejoin="round"/>
	<defs>
		<linearGradient id="paint0_linear_372_75" x1="47.3926" y1="-6.2899" x2="6.35479" y2="9.741" gradientUnits="userSpaceOnUse">
			<stop stop-color="#013B6C"/>
			<stop offset="1" stop-color="#2B7DB4"/>
		</linearGradient>
		<linearGradient id="paint1_linear_372_75" x1="48.0485" y1="-5.85719" x2="16.1295" y2="6.61157" gradientUnits="userSpaceOnUse">
			<stop stop-color="#013B6C"/>
			<stop offset="1" stop-color="#2B7DB4"/>
		</linearGradient>
	</defs>
</svg>