<svg xmlns="http://www.w3.org/2000/svg" viewBox="0 0 40 40" fill="none">
	<path d="M34 0C37.3137 0 40 2.68629 40 6V34C40 37.3137 37.3137 40 34 40H6C2.68629 40 0 37.3137 0 34V6C0 2.68629 2.68629 0 6 0H34ZM29 20.6572C28.4697 20.6572 27.961 20.8682 27.5859 21.2432L27.585 21.2422L12.8291 36H34C35.1046 36 36 35.1046 36 34V26.8281L30.4141 21.2422V21.2432C30.039 20.8682 29.5303 20.6572 29 20.6572ZM6 4C4.89543 4 4 4.89543 4 6V34C4 35.1046 4.89543 36 6 36H7.17188L24.7578 18.4141L24.9736 18.209C26.0742 17.2127 27.5084 16.6572 29 16.6572C30.4916 16.6572 31.9258 17.2127 33.0264 18.209L33.2422 18.4141L36 21.1719V6C36 4.89543 35.1046 4 34 4H6ZM14 8C17.3137 8 20 10.6863 20 14C20 17.3137 17.3137 20 14 20C10.6863 20 8 17.3137 8 14C8 10.6863 10.6863 8 14 8ZM14 12C12.8954 12 12 12.8954 12 14C12 15.1046 12.8954 16 14 16C15.1046 16 16 15.1046 16 14C16 12.8954 15.1046 12 14 12Z" fill="url(#paint0_linear_688_26)"/>
	<defs>
		<linearGradient id="paint0_linear_688_26" x1="46.8499" y1="-12.0179" x2="3.54037" y2="4.90038" gradientUnits="userSpaceOnUse">
			<stop stop-color="#013B6C"/>
			<stop offset="1" stop-color="#2B7DB4"/>
		</linearGradient>
	</defs>
</svg>