<svg xmlns="http://www.w3.org/2000/svg" viewBox="0 0 42 42" fill="none">
  <path d="M21 0.5C21.8499 0.5 22.6651 0.836443 23.2676 1.43555L23.373 1.54199C23.6126 1.79742 23.8047 2.09428 23.9404 2.41797C24.0952 2.78707 24.1717 3.18379 24.168 3.58398L24.1689 3.58496L24.0762 17.9268H38.5146C39.1725 17.9208 39.8106 18.135 40.3291 18.5312L40.5449 18.7129L40.5576 18.7256C41.1607 19.3287 41.5 20.1471 41.5 21C41.5 21.8529 41.1607 22.6713 40.5576 23.2744C40.279 23.5729 39.9426 23.8118 39.5684 23.9756C39.1876 24.1422 38.7759 24.2273 38.3604 24.2266H38.3574L24.1309 24.1338V38.4102L24.1211 38.7061C24.0967 39.001 24.0288 39.2913 23.9189 39.5674C23.7726 39.9352 23.5549 40.2705 23.2783 40.5537L23.2744 40.5586L23.2734 40.5576C22.6703 41.1607 21.8529 41.5 21 41.5C20.1471 41.5 19.3287 41.1607 18.7256 40.5576V40.5566C18.4402 40.2799 18.2133 39.9487 18.0596 39.582C17.9045 39.2121 17.8269 38.8142 17.8311 38.4131L17.9238 24.0732H3.48535V24.0723C2.73309 24.0791 2.00647 23.7991 1.45508 23.2871L1.44238 23.2744C0.839279 22.6713 0.5 21.8529 0.5 21C0.500001 20.1471 0.83928 19.3287 1.44238 18.7256L1.44629 18.7217L1.66504 18.5283C2.19521 18.1036 2.85761 17.8692 3.54297 17.8691H17.8691V3.63574L17.8682 3.48438C17.8749 3.13201 17.9441 2.78325 18.0723 2.4541C18.2187 2.078 18.4396 1.73497 18.7217 1.44629L18.7256 1.44238L18.8418 1.33203C19.4317 0.797921 20.2004 0.500001 21 0.5Z" fill="url(#paint0_linear_639_3)" stroke="url(#paint1_linear_639_3)"/>
  <defs>
    <linearGradient id="paint0_linear_639_3" x1="47.8499" y1="-11.0179" x2="4.54037" y2="5.90038" gradientUnits="userSpaceOnUse">
      <stop stop-color="#013B6C"/>
      <stop offset="1" stop-color="#2B7DB4"/>
    </linearGradient>
    <linearGradient id="paint1_linear_639_3" x1="47.8499" y1="-11.0179" x2="4.54037" y2="5.90038" gradientUnits="userSpaceOnUse">
      <stop stop-color="#013B6C"/>
      <stop offset="1" stop-color="#2B7DB4"/>
    </linearGradient>
  </defs>
</svg>