<svg xmlns="http://www.w3.org/2000/svg" viewBox="0 0 30 30" fill="none">
	<path fill-rule="evenodd" clip-rule="evenodd" d="M15 3.44262C8.61713 3.44262 3.44262 8.61713 3.44262 15C3.44262 21.3829 8.61713 26.5574 15 26.5574L15.0024 26.5574C16.5197 26.5595 18.0224 26.2617 19.4242 25.681C20.8261 25.1004 22.0993 24.2484 23.1707 23.174C23.842 22.5009 24.9318 22.4994 25.605 23.1707C26.2781 23.842 26.2796 24.9318 25.6083 25.605C24.2165 27.0006 22.5626 28.1074 20.7417 28.8616C18.9207 29.6159 16.9686 30.0027 14.9976 30L15 28.279V30C14.9992 30 14.9984 30 14.9976 30C6.71452 29.9987 0 23.2834 0 15C0 6.71582 6.71582 0 15 0C19.1414 0 22.8936 1.6811 25.6065 4.39315L25.6066 4.39334C25.8752 4.66193 26.205 5.00684 26.5574 5.38285L26.5574 3.19672C26.5574 2.24607 27.328 1.47541 28.2787 1.47541C29.2293 1.47541 30 2.24607 30 3.19673L30 9.83606C30 10.7867 29.2293 11.5574 28.2787 11.5574L21.6393 11.5574C20.6887 11.5574 19.918 10.7867 19.918 9.83607C19.918 8.88541 20.6887 8.11476 21.6393 8.11476L24.3974 8.11475C23.9314 7.61184 23.4947 7.15002 23.1725 6.82783C23.1725 6.82777 23.1724 6.8277 23.1723 6.82764M15 3.44262C18.1913 3.44262 21.0784 4.73439 23.1723 6.82764Z" fill="url(#paint0_linear_372_68)"/>
	<defs>
		<linearGradient id="paint0_linear_372_68" x1="35.1374" y1="-9.01345" x2="2.65527" y2="3.67528" gradientUnits="userSpaceOnUse">
			<stop stop-color="#013B6C"/>
			<stop offset="1" stop-color="#2B7DB4"/>
		</linearGradient>
	</defs>
</svg>