<svg xmlns="http://www.w3.org/2000/svg" viewBox="0 0 40 50" fill="none">
	<path d="M22.9631 1.20811C22.1773 0.434518 21.1121 0 20.0014 0C18.8907 0 17.8255 0.434518 17.0397 1.20811L1.22795 16.7845C0.441706 17.5595 -1.17159e-08 18.6105 0 19.7065C1.17159e-08 20.8024 0.441706 21.8535 1.22795 22.6284C2.01419 23.4034 3.08056 23.8387 4.19247 23.8387C5.30438 23.8387 6.37075 23.4034 7.15699 22.6284L15.8103 14.1021V45.8691C15.8103 46.9647 16.2518 48.0154 17.0378 48.7901C17.8238 49.5648 18.8898 50 20.0014 50C21.113 50 22.179 49.5648 22.965 48.7901C23.751 48.0154 24.1925 46.9647 24.1925 45.8691V14.1021L32.843 22.6284C33.2323 23.0121 33.6945 23.3165 34.2031 23.5242C34.7118 23.7318 35.257 23.8387 35.8075 23.8387C36.3581 23.8387 36.9033 23.7318 37.4119 23.5242C37.9206 23.3165 38.3828 23.0121 38.7721 22.6284C39.1614 22.2447 39.4702 21.7891 39.6809 21.2878C39.8916 20.7865 40 20.2491 40 19.7065C40 19.1638 39.8916 18.6265 39.6809 18.1251C39.4702 17.6238 39.1614 17.1682 38.7721 16.7845L22.9631 1.20811Z" fill="url(#paint0_linear_372_64)"/>
	<defs>
		<linearGradient id="paint0_linear_372_64" x1="46.8499" y1="-15.0224" x2="1.37284" y2="-0.810392" gradientUnits="userSpaceOnUse">
			<stop stop-color="#013B6C"/>
			<stop offset="1" stop-color="#2B7DB4"/>
		</linearGradient>
	</defs>
</svg>