<svg class='header-settings' xmlns="http://www.w3.org/2000/svg" viewBox="0 0 40 40" fill="none">
	<path fill-rule="evenodd" clip-rule="evenodd" d="M28.8855 26.6637C31.7877 26.6637 34.2588 28.5193 35.1744 31.1082H37.7744C38.3637 31.1082 38.929 31.3423 39.3457 31.7591C39.7625 32.1758 39.9966 32.741 39.9966 33.3304C39.9966 33.9198 39.7625 34.485 39.3457 34.9018C38.929 35.3185 38.3637 35.5526 37.7744 35.5526H35.1744C34.7152 36.8538 33.8638 37.9806 32.7375 38.7775C31.6111 39.5745 30.2653 40.0025 28.8855 40.0025C27.5057 40.0025 26.1598 39.5745 25.0335 38.7775C23.9071 37.9806 23.0557 36.8538 22.5966 35.5526H2.2188C1.62943 35.5526 1.0642 35.3185 0.647456 34.9018C0.230708 34.485 -0.00341797 33.9198 -0.00341797 33.3304C-0.00341797 32.741 0.230708 32.1758 0.647456 31.7591C1.0642 31.3423 1.62943 31.1082 2.2188 31.1082H22.5966C23.0563 29.8078 23.9081 28.6821 25.0344 27.8861C26.1607 27.0901 27.5062 26.663 28.8855 26.6637ZM28.8855 31.1082C28.2961 31.1082 27.7309 31.3423 27.3141 31.7591C26.8974 32.1758 26.6632 32.741 26.6632 33.3304C26.6632 33.9198 26.8974 34.485 27.3141 34.9018C27.7309 35.3185 28.2961 35.5526 28.8855 35.5526C29.4748 35.5526 30.0401 35.3185 30.4568 34.9018C30.8736 34.485 31.1077 33.9198 31.1077 33.3304C31.1077 32.741 30.8736 32.1758 30.4568 31.7591C30.0401 31.3423 29.4748 31.1082 28.8855 31.1082ZM11.1077 13.3304C12.4166 13.3302 13.6965 13.7153 14.788 14.4377C15.8795 15.1601 16.7341 16.1878 17.2455 17.3926L17.3944 17.7748H37.7744C38.3408 17.7755 38.8855 17.9924 39.2974 18.3812C39.7093 18.77 39.9571 19.3014 39.9903 19.8668C40.0235 20.4323 39.8395 20.989 39.476 21.4234C39.1125 21.8577 38.5968 22.1368 38.0344 22.2037L37.7744 22.2193H17.3966C16.9486 23.4866 16.1281 24.5889 15.0427 25.3818C13.9572 26.1746 12.6576 26.621 11.314 26.6623C9.97051 26.7036 8.64586 26.338 7.51376 25.6134C6.38166 24.8887 5.49496 23.8389 4.96992 22.6015L4.8188 22.2193H2.2188C1.65241 22.2187 1.10762 22.0018 0.695764 21.613C0.283906 21.2241 0.0360598 20.6927 0.00286622 20.1273C-0.0303274 19.5619 0.153637 19.0051 0.517171 18.5708C0.880705 18.1364 1.39637 17.8573 1.9588 17.7904L2.2188 17.7748H4.8188C5.27855 16.4745 6.13028 15.3488 7.25662 14.5528C8.38297 13.7568 9.72847 13.3297 11.1077 13.3304ZM11.1077 17.7748C10.5183 17.7748 9.95309 18.009 9.53635 18.4257C9.1196 18.8425 8.88547 19.4077 8.88547 19.9971C8.88547 20.5864 9.1196 21.1517 9.53635 21.5684C9.95309 21.9852 10.5183 22.2193 11.1077 22.2193C11.6971 22.2193 12.2623 21.9852 12.679 21.5684C13.0958 21.1517 13.3299 20.5864 13.3299 19.9971C13.3299 19.4077 13.0958 18.8425 12.679 18.4257C12.2623 18.009 11.6971 17.7748 11.1077 17.7748ZM28.8855 -0.00292877C31.7877 -0.00292877 34.2588 1.85263 35.1744 4.44152H37.7744C38.3637 4.44152 38.929 4.67564 39.3457 5.09239C39.7625 5.50914 39.9966 6.07437 39.9966 6.66374C39.9966 7.25311 39.7625 7.81834 39.3457 8.23509C38.929 8.65183 38.3637 8.88596 37.7744 8.88596H35.1744C34.7152 10.1871 33.8638 11.3139 32.7375 12.1109C31.6111 12.9079 30.2653 13.3359 28.8855 13.3359C27.5057 13.3359 26.1598 12.9079 25.0335 12.1109C23.9071 11.3139 23.0557 10.1871 22.5966 8.88596H2.2188C1.62943 8.88596 1.0642 8.65183 0.647456 8.23509C0.230708 7.81834 -0.00341797 7.25311 -0.00341797 6.66374C-0.00341797 6.07437 0.230708 5.50914 0.647456 5.09239C1.0642 4.67564 1.62943 4.44152 2.2188 4.44152H22.5966C23.0563 3.14117 23.9081 2.01542 25.0344 1.21942C26.1607 0.423416 27.5062 -0.00365182 28.8855 -0.00292877ZM28.8855 4.44152C28.2961 4.44152 27.7309 4.67564 27.3141 5.09239C26.8974 5.50914 26.6632 6.07437 26.6632 6.66374C26.6632 7.25311 26.8974 7.81834 27.3141 8.23509C27.7309 8.65183 28.2961 8.88596 28.8855 8.88596C29.4748 8.88596 30.0401 8.65183 30.4568 8.23509C30.8736 7.81834 31.1077 7.25311 31.1077 6.66374C31.1077 6.07437 30.8736 5.50914 30.4568 5.09239C30.0401 4.67564 29.4748 4.44152 28.8855 4.44152Z" fill="url(#paint0_linear_372_79)"/>
	<defs>
		<linearGradient id="paint0_linear_372_79" x1="46.8465" y1="-12.0225" x2="3.53539" y2="4.89412" gradientUnits="userSpaceOnUse">
			<stop stop-color="#013B6C"/>
			<stop offset="1" stop-color="#2B7DB4"/>
		</linearGradient>
	</defs>
</svg>