<svg xmlns="http://www.w3.org/2000/svg" viewBox="0 0 34 30" fill="none">
	<path d="M32.8458 13.8216L19.5121 0.48799C19.279 0.254968 18.9821 0.0962874 18.6588 0.0320066C18.3356 -0.0322742 18.0005 0.000731602 17.696 0.126851C17.3915 0.252971 17.1312 0.466542 16.9481 0.740565C16.7649 1.01459 16.6671 1.33676 16.6671 1.66635V7.57482C12.1141 7.99616 7.88223 10.1013 4.7996 13.4783C1.71696 16.8554 0.00545302 21.2612 0 25.8336V28.3336C0.000263099 28.6796 0.108185 29.0169 0.308798 29.2988C0.50941 29.5807 0.792768 29.7932 1.11957 29.9067C1.44637 30.0203 1.80042 30.0294 2.1326 29.9326C2.46478 29.8359 2.75864 29.6383 2.9734 29.367C4.60652 27.4255 6.61006 25.8288 8.86704 24.6701C11.124 23.5114 13.5892 22.814 16.1187 22.6185C16.2021 22.6085 16.4104 22.5918 16.6671 22.5752V28.3336C16.6671 28.6632 16.7649 28.9854 16.9481 29.2594C17.1312 29.5335 17.3915 29.747 17.696 29.8731C18.0005 29.9993 18.3356 30.0323 18.6588 29.968C18.9821 29.9037 19.279 29.745 19.5121 29.512L32.8458 16.1784C33.1582 15.8658 33.3338 15.442 33.3338 15C33.3338 14.5581 33.1582 14.1342 32.8458 13.8216ZM20.0005 24.3102V20.8335C20.0005 20.3914 19.8249 19.9675 19.5123 19.6549C19.1997 19.3424 18.7758 19.1668 18.3338 19.1668C17.9088 19.1668 16.1737 19.2501 15.7304 19.3084C11.2383 19.7219 6.96229 21.4285 3.42008 24.2219C3.82216 20.5459 5.56603 17.1473 8.31779 14.6769C11.0695 12.2066 14.6358 10.838 18.3338 10.8332C18.7758 10.8332 19.1997 10.6576 19.5123 10.3451C19.8249 10.0325 20.0005 9.60857 20.0005 9.16653V5.68978L29.3107 15L20.0005 24.3102Z" fill="url(#paint0_linear_372_67)"/>
	<defs>
		<linearGradient id="paint0_linear_372_67" x1="39.0421" y1="-9.01345" x2="4.03758" y2="6.18016" gradientUnits="userSpaceOnUse">
			<stop stop-color="#013B6C"/>
			<stop offset="1" stop-color="#2B7DB4"/>
		</linearGradient>
	</defs>
</svg>