<svg xmlns="http://www.w3.org/2000/svg" viewBox="0 0 37 50" fill="none">
	<path d="M18.4211 0C20.5149 0 22.5229 0.831765 24.0035 2.31232C25.484 3.79287 26.3158 5.80092 26.3158 7.89474V23.6842C26.3158 25.778 25.484 27.7861 24.0035 29.2666C22.5229 30.7472 20.5149 31.5789 18.4211 31.5789C16.3272 31.5789 14.3192 30.7472 12.8386 29.2666C11.3581 27.7861 10.5263 25.778 10.5263 23.6842V7.89474C10.5263 5.80092 11.3581 3.79287 12.8386 2.31232C14.3192 0.831765 16.3272 0 18.4211 0ZM36.8421 23.6842C36.8421 32.9737 29.9737 40.6316 21.0526 41.9211V50H15.7895V41.9211C6.86842 40.6316 0 32.9737 0 23.6842H5.26316C5.26316 27.1739 6.64943 30.5207 9.11702 32.9882C11.5846 35.4558 14.9314 36.8421 18.4211 36.8421C21.9107 36.8421 25.2575 35.4558 27.7251 32.9882C30.1927 30.5207 31.5789 27.1739 31.5789 23.6842H36.8421Z" fill="url(#paint0_linear_683_3)"/>
	<defs>
		<linearGradient id="paint0_linear_683_3" x1="43.1512" y1="-15.0224" x2="0.691512" y2="-2.8009" gradientUnits="userSpaceOnUse">
			<stop stop-color="#013B6C"/>
			<stop offset="1" stop-color="#2B7DB4"/>
		</linearGradient>
	</defs>
</svg>